<?xml version="1.0" encoding="utf-8" ?>
<svg baseProfile="full" height="450mm" version="1.1" width="750mm" xmlns="http://www.w3.org/2000/svg" xmlns:ev="http://www.w3.org/2001/xml-events" xmlns:xlink="http://www.w3.org/1999/xlink"><defs /><circle cx="375.0mm" cy="225.0mm" fill="none" r="220mm" stroke="rgb(100%,0%,0%)" stroke-width="0.1mm" /><circle cx="366.37353813389626mm" cy="255.81532339068758mm" fill="none" r="17mm" stroke="rgb(0%,0%,100%)" stroke-width="2mm" /><circle cx="329.7459497885249mm" cy="224.73365537870464mm" fill="none" r="17mm" stroke="rgb(0%,0%,100%)" stroke-width="2mm" /><line stroke="rgb(0%,0%,100%)" stroke-width="3mm" x1="351.8865893159425mm" x2="344.23289860647867mm" y1="243.52189775151004mm" y2="237.02708101788218mm" /><circle cx="348.40704987163764mm" cy="176.37063640689473mm" fill="none" r="17mm" stroke="rgb(0%,0%,100%)" stroke-width="2mm" /><line stroke="rgb(0%,0%,100%)" stroke-width="3mm" x1="336.5856863065103mm" x2="341.56731335365225mm" y1="207.0074599503411mm" y2="194.09683183525829mm" /><circle cx="401.18159262949524mm" cy="166.60030644444132mm" fill="none" r="17mm" stroke="rgb(0%,0%,100%)" stroke-width="2mm" /><line stroke="rgb(0%,0%,100%)" stroke-width="3mm" x1="367.08958120140505mm" x2="382.4990612997278mm" y1="172.91187606361305mm" y2="170.059066787723mm" /><circle cx="442.81310442722315mm" cy="202.16619024467158mm" fill="none" r="17mm" stroke="rgb(0%,0%,100%)" stroke-width="2mm" /><line stroke="rgb(0%,0%,100%)" stroke-width="3mm" x1="415.627726967468mm" x2="428.3669700892504mm" y1="178.94166790455762mm" y2="189.82482878455528mm" /><circle cx="446.3160396971001mm" cy="257.52725752229406mm" fill="none" r="17mm" stroke="rgb(100%,0%,0%)" stroke-width="0.1mm" /><line stroke="rgb(0%,0%,100%)" stroke-width="3mm" x1="444.0129175696257mm" x2="445.11622655469756mm" y1="221.12826946672206mm" y2="238.5651783002436mm" /><circle cx="411.5213993922125mm" cy="301.3818524679423mm" fill="none" r="17mm" stroke="rgb(0%,0%,100%)" stroke-width="2mm" /><line stroke="rgb(0%,0%,100%)" stroke-width="3mm" x1="434.5067464997182mm" x2="423.33069258959443mm" y1="272.41149731404255mm" y2="286.4976126761938mm" /><circle cx="356.4994483218036mm" cy="313.5986996947607mm" fill="none" r="17mm" stroke="rgb(0%,0%,100%)" stroke-width="2mm" /><line stroke="rgb(0%,0%,100%)" stroke-width="3mm" x1="392.97311360569324mm" x2="375.04773410832286mm" y1="305.50023739186656mm" y2="309.48031477083634mm" /><circle cx="304.7813014527453mm" cy="290.4624653853624mm" fill="none" r="17mm" stroke="rgb(0%,0%,100%)" stroke-width="2mm" /><line stroke="rgb(0%,0%,100%)" stroke-width="3mm" x1="339.1557976078121mm" x2="322.1249521667368mm" y1="305.83997686744806mm" y2="298.22118821267503mm" /><circle cx="275.22019383503294mm" cy="241.8520112058355mm" fill="none" r="17mm" stroke="rgb(100%,0%,0%)" stroke-width="0.1mm" /><line stroke="rgb(0%,0%,100%)" stroke-width="3mm" x1="294.90910020605725mm" x2="285.092395081721mm" y1="274.22856127868215mm" y2="258.0859153125158mm" /><circle cx="276.78110184241257mm" cy="184.78746408507092mm" fill="none" r="17mm" stroke="rgb(0%,0%,100%)" stroke-width="2mm" /><line stroke="rgb(0%,0%,100%)" stroke-width="3mm" x1="275.7397136590519mm" x2="276.2615820183936mm" y1="222.85911518778573mm" y2="203.7803601031207mm" /><circle cx="307.91846917736973mm" cy="136.7499675779521mm" fill="none" r="17mm" stroke="rgb(0%,0%,100%)" stroke-width="2mm" /><line stroke="rgb(0%,0%,100%)" stroke-width="3mm" x1="287.11557190059466mm" x2="297.58399911918764mm" y1="168.84385318237582mm" y2="152.6935784806472mm" /><circle cx="359.061083205438mm" cy="110.728608429686mm" fill="none" r="17mm" stroke="rgb(0%,0%,100%)" stroke-width="2mm" /><line stroke="rgb(0%,0%,100%)" stroke-width="3mm" x1="324.8525600286889mm" x2="342.1269923541188mm" y1="128.13390310284126mm" y2="119.34467290479684mm" /><circle cx="416.5253105819978mm" cy="112.69840347943124mm" fill="none" r="17mm" stroke="rgb(100%,0%,0%)" stroke-width="0.1mm" /><line stroke="rgb(0%,0%,100%)" stroke-width="3mm" x1="378.0499302999756mm" x2="397.53646348746025mm" y1="111.37952011361212mm" y2="112.04749179550512mm" /><circle cx="466.47495962320716mm" cy="141.37983639137852mm" fill="none" r="17mm" stroke="rgb(0%,0%,100%)" stroke-width="2mm" /><line stroke="rgb(0%,0%,100%)" stroke-width="3mm" x1="433.002174403092mm" x2="449.99809580211297mm" y1="122.15953230326177mm" y2="131.91870756754798mm" /><circle cx="498.0281562646643mm" cy="189.67192665715635mm" fill="none" r="17mm" stroke="rgb(0%,0%,100%)" stroke-width="2mm" /><line stroke="rgb(0%,0%,100%)" stroke-width="3mm" x1="476.8675284860201mm" x2="487.63558740185135mm" y1="157.28563761079812mm" y2="173.76612543773675mm" /><circle cx="505.091862162599mm" cy="247.00244075250131mm" fill="none" r="17mm" stroke="rgb(0%,0%,100%)" stroke-width="2mm" /><line stroke="rgb(0%,0%,100%)" stroke-width="3mm" x1="500.3515814044777mm" x2="502.7684370227856mm" y1="208.52933092231657mm" y2="228.1450364873411mm" /><circle cx="486.8884692612246mm" cy="301.8958415415294mm" fill="none" r="17mm" stroke="rgb(100%,0%,0%)" stroke-width="0.1mm" /><line stroke="rgb(0%,0%,100%)" stroke-width="3mm" x1="499.11145611046584mm" x2="492.86887531335776mm" y1="265.03670656654566mm" y2="283.86157572748505mm" /><circle cx="447.3937724052152mm" cy="344.2272691834461mm" fill="none" r="17mm" stroke="rgb(0%,0%,100%)" stroke-width="2mm" /><line stroke="rgb(0%,0%,100%)" stroke-width="3mm" x1="473.9269897326823mm" x2="460.35525193375753mm" y1="315.78828727405534mm" y2="330.33482345092017mm" /><circle cx="394.03627965085553mm" cy="366.8365963249768mm" fill="none" r="17mm" stroke="rgb(100%,0%,0%)" stroke-width="0.1mm" /><line stroke="rgb(0%,0%,100%)" stroke-width="3mm" x1="429.8995156291746mm" x2="411.53053642689616mm" y1="351.640161996239mm" y2="359.4237035121839mm" /><circle cx="336.03798519468205mm" cy="366.37171358624107mm" fill="none" r="17mm" stroke="rgb(0%,0%,100%)" stroke-width="2mm" /><line stroke="rgb(0%,0%,100%)" stroke-width="3mm" x1="375.03688997292716mm" x2="355.0373748726104mm" y1="366.6843075656158mm" y2="366.52400234560207mm" /><circle cx="282.7368170229637mm" cy="343.38709839735884mm" fill="none" r="17mm" stroke="rgb(0%,0%,100%)" stroke-width="2mm" /><line stroke="rgb(0%,0%,100%)" stroke-width="3mm" x1="318.5910144823462mm" x2="300.1837877352995mm" y1="358.8482029055218mm" y2="350.9106090780781mm" /><circle cx="242.15057082177205mm" cy="301.8311731461846mm" fill="none" r="17mm" stroke="rgb(0%,0%,100%)" stroke-width="2mm" /><line stroke="rgb(0%,0%,100%)" stroke-width="3mm" x1="269.4613121515621mm" x2="255.42607569317366mm" y1="329.7944176312483mm" y2="315.42385391229516mm" /><circle cx="219.94601116086656mm" cy="248.1140767731241mm" fill="none" r="17mm" stroke="rgb(100%,0%,0%)" stroke-width="0.1mm" /><line stroke="rgb(0%,0%,100%)" stroke-width="3mm" x1="234.89236339807343mm" x2="227.20421858456518mm" y1="284.27217474096324mm" y2="265.67307517834547mm" /><circle cx="218.88329068886966mm" cy="189.96326108405594mm" fill="none" r="17mm" stroke="rgb(0%,0%,100%)" stroke-width="2mm" /><line stroke="rgb(0%,0%,100%)" stroke-width="3mm" x1="219.5988394537068mm" x2="219.23046239602942mm" y1="229.11724883249815mm" y2="208.9600890246819mm" /><circle cx="238.726746216672mm" cy="135.2581463122993mm" fill="none" r="17mm" stroke="rgb(100%,0%,0%)" stroke-width="0.1mm" /><line stroke="rgb(0%,0%,100%)" stroke-width="3mm" x1="225.36218635222264mm" x2="232.24785055331904mm" y1="172.10202061808084mm" y2="153.1193867782744mm" /><circle cx="276.55462786919236mm" cy="90.99810185662741mm" fill="none" r="17mm" stroke="rgb(0%,0%,100%)" stroke-width="2mm" /><line stroke="rgb(0%,0%,100%)" stroke-width="3mm" x1="251.07120825583976mm" x2="264.2101658300246mm" y1="120.8146613809004mm" y2="105.4415867880263mm" /><circle cx="327.36407403372283mm" cy="62.510558628151585mm" fill="none" r="17mm" stroke="rgb(0%,0%,100%)" stroke-width="2mm" /><line stroke="rgb(0%,0%,100%)" stroke-width="3mm" x1="293.12747698587486mm" x2="310.7912249170403mm" y1="81.70613370366452mm" y2="71.80252678111448mm" /><circle cx="384.85214984336704mm" cy="52.95658936342886mm" fill="none" r="17mm" stroke="rgb(0%,0%,100%)" stroke-width="2mm" /><line stroke="rgb(0%,0%,100%)" stroke-width="3mm" x1="346.10700398050255mm" x2="366.1092198965873mm" y1="59.395662641106846mm" y2="56.0714853504736mm" /><circle cx="442.2555336606797mm" cy="63.146074523917775mm" fill="none" r="17mm" stroke="rgb(100%,0%,0%)" stroke-width="0.1mm" /><line stroke="rgb(0%,0%,100%)" stroke-width="3mm" x1="403.559710776284mm" x2="423.5479727277627mm" y1="56.277306746946756mm" y2="59.82535714039988mm" /><circle cx="493.1460120705898mm" cy="91.63763712420192mm" fill="none" r="17mm" stroke="rgb(0%,0%,100%)" stroke-width="2mm" /><line stroke="rgb(0%,0%,100%)" stroke-width="3mm" x1="458.8341346475287mm" x2="476.5674110837408mm" y1="72.42777637858057mm" y2="82.35593526953912mm" /><circle cx="532.1016882693536mm" cy="135.07192016439558mm" fill="none" r="17mm" stroke="rgb(0%,0%,100%)" stroke-width="2mm" /><line stroke="rgb(0%,0%,100%)" stroke-width="3mm" x1="505.83200204746146mm" x2="519.4156982924819mm" y1="105.78209392913831mm" y2="120.92746335945918mm" /><circle cx="555.2004366475692mm" cy="188.67091203972487mm" fill="none" r="17mm" stroke="rgb(0%,0%,100%)" stroke-width="2mm" /><line stroke="rgb(0%,0%,100%)" stroke-width="3mm" x1="539.6212748660358mm" x2="547.680850050887mm" y1="152.5205825032397mm" y2="171.22224970088075mm" /><circle cx="560.3090560416061mm" cy="246.83011106176264mm" fill="none" r="17mm" stroke="rgb(100%,0%,0%)" stroke-width="0.1mm" /><line stroke="rgb(0%,0%,100%)" stroke-width="3mm" x1="556.8629675977439mm" x2="558.6465250914314mm" y1="207.59803519248402mm" y2="227.9029879090035mm" /><circle cx="547.1660519260071mm" cy="303.7327794772383mm" fill="none" r="17mm" stroke="rgb(0%,0%,100%)" stroke-width="2mm" /><line stroke="rgb(0%,0%,100%)" stroke-width="3mm" x1="556.033136490563mm" x2="551.4419714770502mm" y1="265.34271520037606mm" y2="285.22017533862487mm" /><circle cx="517.2761715122244mm" cy="353.92436162271315mm" fill="none" r="17mm" stroke="rgb(0%,0%,100%)" stroke-width="2mm" /><line stroke="rgb(0%,0%,100%)" stroke-width="3mm" x1="537.4445113424567mm" x2="526.9977120957748mm" y1="320.05735140676785mm" y2="337.5997896931836mm" /></svg>